<svg width="66" height="42" viewBox="0 0 66 42" fill="none" xmlns="http://www.w3.org/2000/svg">
<g filter="url(#filter0_d_45_55)">
<path d="M4.51562 1.86605H21.1671C23.0022 1.86605 24.6267 2.22916 26.0406 2.9554C27.4546 3.65138 28.5526 4.66508 29.3348 5.99652C30.117 7.29769 30.5081 8.79556 30.5081 10.4901V14.7114C30.5081 16.4664 30.102 18.0248 29.2897 19.3865C28.4774 20.7179 27.3343 21.7619 25.8601 22.5184C24.4161 23.2446 22.7314 23.6078 20.806 23.6078H10.743V33.6389H4.51562V1.86605ZM20.7158 18.161C21.7687 18.161 22.6261 17.8281 23.288 17.1624C23.9498 16.4664 24.2807 15.5586 24.2807 14.439V10.7624C24.2807 9.70335 23.9799 8.87121 23.3782 8.26601C22.8066 7.63055 22.0395 7.31282 21.0768 7.31282H10.743V18.161H20.7158Z" fill="#FBF503"/>
<path d="M44.6931 34.002C42.3767 34.002 40.331 33.5027 38.556 32.5042C36.8111 31.5056 35.4574 30.0985 34.4947 28.2829C33.532 26.4371 33.0507 24.3189 33.0507 21.9283V13.5766C33.0507 11.1861 33.532 9.08303 34.4947 7.26743C35.4875 5.42158 36.8713 3.99937 38.6463 3.00079C40.4513 2.00222 42.5271 1.50293 44.8736 1.50293H49.657C51.9133 1.50293 53.8988 1.98709 55.6136 2.9554C57.3284 3.92372 58.652 5.28541 59.5846 7.04048C60.5473 8.7653 61.0287 10.7776 61.0287 13.0773H54.8916C54.8916 11.2617 54.4102 9.80926 53.4475 8.71991C52.4849 7.60029 51.2213 7.04048 49.657 7.04048H44.8736C43.1889 7.04048 41.8352 7.67594 40.8123 8.94686C39.7894 10.1875 39.278 11.8215 39.278 13.849V21.656C39.278 23.6834 39.7744 25.3326 40.7672 26.6035C41.7599 27.8441 43.0686 28.4645 44.6931 28.4645H49.5667C51.1612 28.4645 52.4548 27.8441 53.4475 26.6035C54.4704 25.3628 54.9818 23.7288 54.9818 21.7014H61.1189C61.1189 24.1524 60.6376 26.316 59.6749 28.1921C58.7122 30.038 57.3584 31.4753 55.6136 32.5042C53.8687 33.5027 51.8531 34.002 49.5667 34.002H44.6931Z" fill="#FBF503"/>
</g>
<defs>
<filter id="filter0_d_45_55" x="-2" y="0" width="70" height="43.188" filterUnits="userSpaceOnUse" color-interpolation-filters="sRGB">
<feFlood flood-opacity="0" result="BackgroundImageFix"/>
<feColorMatrix in="SourceAlpha" type="matrix" values="0 0 0 0 0 0 0 0 0 0 0 0 0 0 0 0 0 0 127 0" result="hardAlpha"/>
<feOffset dy="4"/>
<feGaussianBlur stdDeviation="2"/>
<feComposite in2="hardAlpha" operator="out"/>
<feColorMatrix type="matrix" values="0 0 0 0 0 0 0 0 0 0 0 0 0 0 0 0 0 0 0.25 0"/>
<feBlend mode="normal" in2="BackgroundImageFix" result="effect1_dropShadow_45_55"/>
<feBlend mode="normal" in="SourceGraphic" in2="effect1_dropShadow_45_55" result="shape"/>
</filter>
</defs>
</svg>
